TITLE ""
FILE "1Q_t_0578-0587.mp3" MP3
  TRACK 01 AUDIO
    TITLE "1Q_t_0578-0587_01"
    INDEX 01 00:00:00
  TRACK 02 AUDIO
    TITLE "1Q_t_0578-0587_02"
    INDEX 01 00:01:23
  TRACK 03 AUDIO
    TITLE "1Q_t_0578-0587_03"
    INDEX 01 00:01:33
  TRACK 04 AUDIO
    TITLE "1Q_t_0578-0587_04"
    INDEX 01 00:02:48
  TRACK 05 AUDIO
    TITLE "1Q_t_0578-0587_05"
    INDEX 01 00:02:54
  TRACK 06 AUDIO
    TITLE "1Q_t_0578-0587_06"
    INDEX 01 00:07:22
  TRACK 07 AUDIO
    TITLE "1Q_t_0578-0587_07"
    INDEX 01 00:07:69
  TRACK 08 AUDIO
    TITLE "1Q_t_0578-0587_08"
    INDEX 01 00:08:73
  TRACK 09 AUDIO
    TITLE "1Q_t_0578-0587_09"
    INDEX 01 00:09:07
  TRACK 10 AUDIO
    TITLE "1Q_t_0578-0587_10"
    INDEX 01 00:10:46
  TRACK 11 AUDIO
    TITLE "1Q_t_0578-0587_11"
    INDEX 01 00:10:52
  TRACK 12 AUDIO
    TITLE "1Q_t_0578-0587_12"
    INDEX 01 00:14:73
  TRACK 13 AUDIO
    TITLE "1Q_t_0578-0587_13"
    INDEX 01 00:15:45
  TRACK 14 AUDIO
    TITLE "1Q_t_0578-0587_14"
    INDEX 01 00:16:52
  TRACK 15 AUDIO
    TITLE "1Q_t_0578-0587_15"
    INDEX 01 00:16:64
  TRACK 16 AUDIO
    TITLE "1Q_t_0578-0587_16"
    INDEX 01 00:20:37
  TRACK 17 AUDIO
    TITLE "1Q_t_0578-0587_17"
    INDEX 01 00:20:42
  TRACK 18 AUDIO
    TITLE "1Q_t_0578-0587_18"
    INDEX 01 00:25:30
  TRACK 19 AUDIO
    TITLE "1Q_t_0578-0587_19"
    INDEX 01 00:25:73
  TRACK 20 AUDIO
    TITLE "1Q_t_0578-0587_20"
    INDEX 01 00:27:07
  TRACK 21 AUDIO
    TITLE "1Q_t_0578-0587_21"
    INDEX 01 00:27:15
  TRACK 22 AUDIO
    TITLE "1Q_t_0578-0587_22"
    INDEX 01 00:29:59
  TRACK 23 AUDIO
    TITLE "1Q_t_0578-0587_23"
    INDEX 01 00:29:65
  TRACK 24 AUDIO
    TITLE "1Q_t_0578-0587_24"
    INDEX 01 00:34:48
  TRACK 25 AUDIO
    TITLE "1Q_t_0578-0587_25"
    INDEX 01 00:35:20
  TRACK 26 AUDIO
    TITLE "1Q_t_0578-0587_26"
    INDEX 01 00:36:26
  TRACK 27 AUDIO
    TITLE "1Q_t_0578-0587_27"
    INDEX 01 00:36:36
  TRACK 28 AUDIO
    TITLE "1Q_t_0578-0587_28"
    INDEX 01 00:38:11
  TRACK 29 AUDIO
    TITLE "1Q_t_0578-0587_29"
    INDEX 01 00:38:17
  TRACK 30 AUDIO
    TITLE "1Q_t_0578-0587_30"
    INDEX 01 00:42:34
  TRACK 31 AUDIO
    TITLE "1Q_t_0578-0587_31"
    INDEX 01 00:43:06
  TRACK 32 AUDIO
    TITLE "1Q_t_0578-0587_32"
    INDEX 01 00:44:15
  TRACK 33 AUDIO
    TITLE "1Q_t_0578-0587_33"
    INDEX 01 00:44:25
  TRACK 34 AUDIO
    TITLE "1Q_t_0578-0587_34"
    INDEX 01 00:47:75
  TRACK 35 AUDIO
    TITLE "1Q_t_0578-0587_35"
    INDEX 01 00:48:05
  TRACK 36 AUDIO
    TITLE "1Q_t_0578-0587_36"
    INDEX 01 00:52:42
  TRACK 37 AUDIO
    TITLE "1Q_t_0578-0587_37"
    INDEX 01 00:53:12
  TRACK 38 AUDIO
    TITLE "1Q_t_0578-0587_38"
    INDEX 01 00:54:10
  TRACK 39 AUDIO
    TITLE "1Q_t_0578-0587_39"
    INDEX 01 00:54:24
  TRACK 40 AUDIO
    TITLE "1Q_t_0578-0587_40"
    INDEX 01 00:55:52
  TRACK 41 AUDIO
    TITLE "1Q_t_0578-0587_41"
    INDEX 01 00:55:60
  TRACK 42 AUDIO
    TITLE "1Q_t_0578-0587_42"
    INDEX 01 01:01:02
  TRACK 43 AUDIO
    TITLE "1Q_t_0578-0587_43"
    INDEX 01 01:01:49
  TRACK 44 AUDIO
    TITLE "1Q_t_0578-0587_44"
    INDEX 01 01:02:47
  TRACK 45 AUDIO
    TITLE "1Q_t_0578-0587_45"
    INDEX 01 01:02:56
  TRACK 46 AUDIO
    TITLE "1Q_t_0578-0587_46"
    INDEX 01 01:04:02
  TRACK 47 AUDIO
    TITLE "1Q_t_0578-0587_47"
    INDEX 01 01:04:08
  TRACK 48 AUDIO
    TITLE "1Q_t_0578-0587_48"
    INDEX 01 01:08:08
  TRACK 49 AUDIO
    TITLE "1Q_t_0578-0587_49"
    INDEX 01 01:08:53
  TRACK 50 AUDIO
    TITLE "1Q_t_0578-0587_50"
    INDEX 01 01:09:72
  TRACK 51 AUDIO
    TITLE "1Q_t_0578-0587_51"
    INDEX 01 01:10:09
  TRACK 52 AUDIO
    TITLE "1Q_t_0578-0587_52"
    INDEX 01 01:12:63
  TRACK 53 AUDIO
    TITLE "1Q_t_0578-0587_53"
    INDEX 01 01:12:71
  TRACK 54 AUDIO
    TITLE "1Q_t_0578-0587_54"
    INDEX 01 01:18:75
  TRACK 55 AUDIO
    TITLE "1Q_t_0578-0587_55"
    INDEX 01 01:19:47
  TRACK 56 AUDIO
    TITLE "1Q_t_0578-0587_56"
    INDEX 01 01:20:66
  TRACK 57 AUDIO
    TITLE "1Q_t_0578-0587_57"
    INDEX 01 01:20:74
  TRACK 58 AUDIO
    TITLE "1Q_t_0578-0587_58"
    INDEX 01 01:22:12
  TRACK 59 AUDIO
    TITLE "1Q_t_0578-0587_59"
    INDEX 01 01:22:20
  TRACK 60 AUDIO
    TITLE "1Q_t_0578-0587_60"
    INDEX 01 01:29:20
